# xmcd
#
# Track frame offsets: 
#        150
#        18600
#        43120
#        61195
#
# Disc length: 1143 seconds
#
# Revision: 1
# Processed by: cddbd v1.5.2PL0 Copyright (c) Steve Scherf et al.
# Submitted via: ExactAudioCopy v1.0b2
#
DISCID=2e047504
DTITLE=Beyond - 遙かなる夢に
DYEAR=1999
DGENRE=Rock
TTITLE0=遥かなる夢に Far away
TTITLE1=くちびるを奪いたい
TTITLE2=遥かなる夢に Far away（オリジナル・カラオケ）
TTITLE3=くちびるを奪いたい（オリジナル・カラオケ）
EXTD=YEAR: 2004
EXTT0=
EXTT1=
EXTT2=
EXTT3=
PLAYORDER=
